<svg xmlns="http://www.w3.org/2000/svg" xmlns:xlink="http://www.w3.org/1999/xlink" viewBox="0,0,256,256" width="64px" height="64px"><defs><linearGradient x1="32.485" y1="26.009" x2="32.485" y2="39.6" gradientUnits="userSpaceOnUse" id="color-1"><stop offset="0" stop-color="#2959af"></stop><stop offset="0.695" stop-color="#5c256e"></stop></linearGradient><linearGradient x1="32" y1="27.121" x2="32" y2="56.372" gradientUnits="userSpaceOnUse" id="color-2"><stop offset="0" stop-color="#2959af"></stop><stop offset="0.695" stop-color="#5c256e"></stop></linearGradient><linearGradient x1="31.93" y1="24.81" x2="31.93" y2="35.29" gradientUnits="userSpaceOnUse" id="color-3"><stop offset="0" stop-color="#31749d"></stop><stop offset="0.699" stop-color="#543660"></stop></linearGradient><linearGradient x1="31.87" y1="8.21" x2="31.87" y2="43.89" gradientUnits="userSpaceOnUse" id="color-4"><stop offset="0" stop-color="#31749d"></stop><stop offset="0.699" stop-color="#543660"></stop></linearGradient><linearGradient x1="15.25" y1="32.704" x2="15.25" y2="48.615" gradientUnits="userSpaceOnUse" id="color-5"><stop offset="0" stop-color="#31749d"></stop><stop offset="0.699" stop-color="#543660"></stop></linearGradient><linearGradient x1="29.15" y1="26.351" x2="29.15" y2="39.094" gradientUnits="userSpaceOnUse" id="color-6"><stop offset="0" stop-color="#31749d"></stop><stop offset="0.699" stop-color="#543660"></stop></linearGradient><linearGradient x1="15.25" y1="30.671" x2="15.25" y2="43.89" gradientUnits="userSpaceOnUse" id="color-7"><stop offset="0" stop-color="#31749d"></stop><stop offset="0.699" stop-color="#543660"></stop></linearGradient><linearGradient x1="29.15" y1="24.723" x2="29.15" y2="35.31" gradientUnits="userSpaceOnUse" id="color-8"><stop offset="0" stop-color="#31749d"></stop><stop offset="0.699" stop-color="#543660"></stop></linearGradient><linearGradient x1="42.27" y1="13.698" x2="42.27" y2="56.641" gradientUnits="userSpaceOnUse" id="color-9"><stop offset="0" stop-color="#31749d"></stop><stop offset="0.699" stop-color="#543660"></stop></linearGradient><linearGradient x1="42.27" y1="8.21" x2="42.27" y2="43.887" gradientUnits="userSpaceOnUse" id="color-10"><stop offset="0" stop-color="#31749d"></stop><stop offset="0.699" stop-color="#543660"></stop></linearGradient><linearGradient x1="32" y1="1.255" x2="32" y2="56.081" gradientUnits="userSpaceOnUse" id="color-11"><stop offset="0" stop-color="#2959af"></stop><stop offset="1" stop-color="#5c256e"></stop></linearGradient><linearGradient x1="42.42" y1="21" x2="42.42" y2="48.745" gradientUnits="userSpaceOnUse" id="color-12"><stop offset="0" stop-color="#31749d"></stop><stop offset="0.699" stop-color="#543660"></stop></linearGradient></defs><g fill="none" fill-rule="nonzero" stroke="none" stroke-width="1" stroke-linecap="butt" stroke-linejoin="miter" stroke-miterlimit="10" stroke-dasharray="" stroke-dashoffset="0" font-family="none" font-weight="none" font-size="none" text-anchor="none" style="mix-blend-mode: normal"><g transform="scale(4,4)"><path d="M26.07,35.31l6.17,-3.6l6.66,3.92c-1.3,2.29 -3.69,3.7 -6.33,3.7c-2.84,0 -5.31,-1.64 -6.5,-4.02z" fill="url(#color-1)"></path><path d="M52.6,43.67v0.22l-20.6,11.9l-20.6,-11.9l7.7,-4.5c2.6,4.77 7.67,8.01 13.47,8.01c5.52,0 10.55,-2.93 13.29,-7.69z" fill="url(#color-2)"></path><path d="M38.55,27.97l-6.35,3.72h-0.01l-6.13,3.6c-0.48,-0.97 -0.75,-2.06 -0.75,-3.22c0,-1.39 0.39,-2.68 1.07,-3.79c1.28,-2.08 3.57,-3.47 6.19,-3.47c2.41,0 4.63,1.17 5.98,3.16z" fill="url(#color-3)"></path><path d="M45.12,24.1l0.39,-0.24c-2.83,-4.45 -7.67,-7.12 -12.94,-7.12c-5.58,0 -10.47,3 -13.15,7.46c-1.38,2.31 -2.18,4.99 -2.18,7.87c0,2.65 0.67,5.13 1.85,7.3l-7.69,4.52v-23.78l20.6,-11.9l20.34,11.75z" fill="url(#color-4)"></path><path d="M19.09,39.37c0,0.01 0.01,0.01 0.01,0.02l-7.7,4.5z" fill="url(#color-5)"></path><path d="M32.24,31.71l-6.17,3.6c0,-0.01 -0.01,-0.01 -0.01,-0.02l6.13,-3.6h0.01z" fill="url(#color-6)"></path><path d="M19.09,39.37c0,0.01 0.01,0.01 0.01,0.02l-7.7,4.5z" fill="url(#color-7)"></path><path d="M32.24,31.71l-6.17,3.6c0,-0.01 -0.01,-0.01 -0.01,-0.02l6.13,-3.6h0.01z" fill="url(#color-8)"></path><path d="M52.34,19.96l-20.1,11.75l-0.04,-0.02l6.35,-3.72l6.57,-3.87z" fill="url(#color-9)"></path><path d="M52.34,19.96l-20.1,11.75l-0.04,-0.02l6.35,-3.72l6.57,-3.87z" fill="url(#color-10)"></path><path d="M55.1,16.93l-21.6,-12.47c-0.93,-0.53 -2.07,-0.53 -3,0l-21.6,12.47c-0.92,0.54 -1.5,1.53 -1.5,2.6v24.94c0,1.07 0.58,2.06 1.5,2.6l21.6,12.47c0.93,0.53 2.07,0.53 3,0l21.6,-12.47c0.92,-0.54 1.5,-1.53 1.5,-2.6v-24.94c0,-1.07 -0.58,-2.06 -1.5,-2.6zM54.6,44.47c0,0.36 -0.19,0.69 -0.5,0.87l-21.6,12.47c-0.31,0.17 -0.69,0.17 -1,0l-21.6,-12.47c-0.31,-0.18 -0.5,-0.51 -0.5,-0.87v-24.94c0,-0.36 0.19,-0.69 0.5,-0.87l21.6,-12.47c0.31,-0.17 0.69,-0.17 1,0l21.6,12.47c0.31,0.18 0.5,0.51 0.5,0.87z" fill="url(#color-11)"></path><path d="M45.86,39.7v0.01l-6.96,-4.08z" fill="#ffffff"></path><path d="M52.34,19.96l-20.1,11.75l6.66,3.92l6.96,4.08l6.74,3.96v-23.56zM44,33h-2v2h-2v-2h-2v-2h2v-2h2v2h2zM51,33h-2v2h-2v-2h-2v-2h2v-2h2v2h2z" fill="url(#color-12)"></path></g></g></svg>